<svg xmlns="http://www.w3.org/2000/svg" viewBox="0 0 300 300" width="300mm" height="300mm"><g id="cow"><ellipse cx="150" cy="232" rx="60" ry="7" fill="#3c352b" fill-opacity="0.14"/><g id="cow-tail"><path id="cow-tail-curve" d="M 235.057 83.993 a 120,120 0 0 1 -49.53754,54.14864 120,120 0 0 0 10.51047,0.46147 120,120 0 0 0 7.33185,-0.22428 120,120 0 0 0 31.69522,-54.38583 z" fill="#f6ead2" stroke="#3c352b" stroke-width="4.5"/><circle cx="235.057" cy="83.993" r="5" fill="#3c352b" stroke="#3c352b" stroke-width="2"/><circle cx="239.562" cy="87.148" r="3.2" fill="#3c352b" stroke="#3c352b" stroke-width="2"/><circle cx="244.067" cy="90.303" r="2.2" fill="#3c352b" stroke="#3c352b" stroke-width="2"/></g><ellipse id="cow-body" cx="150" cy="111.371" rx="60" ry="90" fill="#f6ead2" stroke="#3c352b" stroke-width="4.5"/><ellipse id="cow-spot-1" cx="118" cy="150" rx="14" ry="19" fill="#3c352b" transform="rotate(-18 118 150)"/><ellipse id="cow-spot-2" cx="186" cy="96" rx="9" ry="13" fill="#3c352b" transform="rotate(14 186 96)"/><g id="cow-udder"><path id="cow-udder-sack" d="M 123.131 174.502 A 26.869 26.869 0 0 0 176.869 174.502 Z" fill="#eed7c9" stroke="#3c352b" stroke-width="3"/><path id="cow-teat-1" d="M 138.476 192.906 A 2.687 4.478 0 0 0 143.85 192.906 Z" fill="#e0c0a8" stroke="#3c352b" stroke-width="2"/><circle cx="141.163" cy="195.817" r="0.896" fill="#8b5e34" stroke="#3c352b" stroke-width="2"/><path id="cow-teat-2" d="M 138.476 193.283 A 2.687 4.478 0 0 0 143.85 193.283 Z" fill="#e0c0a8" stroke="#3c352b" stroke-width="2"/><circle cx="141.163" cy="196.194" r="0.896" fill="#8b5e34" stroke="#3c352b" stroke-width="2"/><path id="cow-teat-3" d="M 155.601 194.103 A 2.687 4.478 0 0 0 160.975 194.103 Z" fill="#e0c0a8" stroke="#3c352b" stroke-width="2"/><circle cx="158.288" cy="197.014" r="0.896" fill="#8b5e34" stroke="#3c352b" stroke-width="2"/><path id="cow-teat-4" d="M 157.475 192.906 A 2.687 4.478 0 0 0 162.849 192.906 Z" fill="#e0c0a8" stroke="#3c352b" stroke-width="2"/><circle cx="160.162" cy="195.817" r="0.896" fill="#8b5e34" stroke="#3c352b" stroke-width="2"/></g><g id="cow-hand-left"><g transform="rotate(75 62.485389 191.03907)"><path d="m 53.974622,104.86675 a 120.27679,75.266068 0 0 0 -24.03887,43.89508 100.23066,62.721723 0 0 0 20.029371,1.26505 100.23066,62.721723 0 0 0 50.115377,-8.40452 100.23066,62.721723 0 0 1 -46.105878,-36.75561 z" fill="#f6ead2" stroke="#3c352b" stroke-width="4.5"/><path d="m 114.94302,137.90778 a 15,15 0 0 1 -15.597211,13.67839 15,15 0 0 1 -14.34571,-14.98572 15,15 0 0 1 14.345709,-14.98572 15,15 0 0 1 15.597212,13.67838 l -14.94292,1.30734 z" fill="#3c352b" stroke="#3c352b" stroke-width="2"/></g></g><g id="cow-hand-right" transform="matrix(-1,0,0,1,300,0)"><g transform="rotate(75 62.485389 191.03907)"><path d="m 53.974622,104.86675 a 120.27679,75.266068 0 0 0 -24.03887,43.89508 100.23066,62.721723 0 0 0 20.029371,1.26505 100.23066,62.721723 0 0 0 50.115377,-8.40452 100.23066,62.721723 0 0 1 -46.105878,-36.75561 z" fill="#f6ead2" stroke="#3c352b" stroke-width="4.5"/><path d="m 114.94302,137.90778 a 15,15 0 0 1 -15.597211,13.67839 15,15 0 0 1 -14.34571,-14.98572 15,15 0 0 1 14.345709,-14.98572 15,15 0 0 1 15.597212,13.67838 l -14.94292,1.30734 z" fill="#3c352b" stroke="#3c352b" stroke-width="2"/></g></g><g id="cow-head"><g id="cow-ear-left"><path d="M 107.75156,47.39659 A 60,60 0 0 0 90.000191,90.000191 25,25 0 0 0 115.00022,65.000167 25,25 0 0 0 107.75156,47.39659 Z" fill="#f6ead2" stroke="#3c352b" stroke-width="4.5"/><path d="M 112.87631,54.917061 A 60,60 0 0 0 91.232674,89.969702 25,25 0 0 0 115.00022,65.000167 25,25 0 0 0 112.87631,54.917061 Z" fill="#ecd3c5" stroke="#3c352b" stroke-width="2"/></g><g id="cow-ear-right"><path d="M 192.24873,47.39659 A 25,25 0 0 0 185.00008,65.000167 25,25 0 0 0 210.0001,90.000191 60,60 0 0 0 192.24873,47.39659 Z" fill="#f6ead2" stroke="#3c352b" stroke-width="4.5"/><path d="M 187.12553,54.91241 A 25,25 0 0 0 185.00008,65.000167 25,25 0 0 0 208.77485,89.970219 60,60 0 0 0 187.12553,54.91241 Z" fill="#ecd3c5" stroke="#3c352b" stroke-width="2"/></g><path id="cow-horn" d="M 150.00015,63.397968 A 120,120 0 0 1 58.691508,20.889452 200,200 0 0 0 150.00015,43.398155 200,200 0 0 0 241.30878,20.889452 120,120 0 0 1 150.00015,63.397968 Z" fill="#e5d5ae" stroke="#3c352b" stroke-width="3"/><path id="cow-face" d="m 150.00015,30.000236 a 120,120 0 0 0 -43.72912,8.251176 450,450 0 0 0 18.20509,71.527418 65,65 0 0 0 25.52403,5.22139 65,65 0 0 0 25.52402,-5.22139 450,450 0 0 0 18.20457,-71.527418 120,120 0 0 0 -43.72859,-8.251176 z" fill="#f6ead2" stroke="#3c352b" stroke-width="4.5"/><path id="cow-jaw" d="m 150.00015,90.000191 a 60,60 0 0 0 -37.61786,13.356289 40,40 0 0 0 37.61786,26.64334 40,40 0 0 0 37.61734,-26.64334 60,60 0 0 0 -37.61734,-13.356289 z" fill="#efdcc0" stroke="#3c352b" stroke-width="3"/><ellipse id="cow-mark" cx="165" cy="65" rx="20" ry="25" fill="#3c352b"/><g id="cow-eye-left"><circle cx="131.364" cy="72.201" r="10" fill="#fdf8ec" stroke="#3c352b" stroke-width="2"/><circle cx="132.082" cy="77.172" r="5" fill="#5a4632" stroke="#3c352b" stroke-width="2"/><circle cx="132.082" cy="77.172" r="2.5" fill="#3c352b" stroke="#3c352b" stroke-width="2"/><path d="m 124.93621,79.861327 a 10,10 0 0 1 -2.8656,-11.352506 10,10 0 0 1 9.87493,-6.291021 10,10 0 0 1 9.07781,7.394891 z" fill="#f6ead2" stroke="#3c352b" stroke-width="2"/></g><g id="cow-eye-right" transform="matrix(-1,0,0,1,300,0)"><circle cx="131.364" cy="72.201" r="10" fill="#fdf8ec" stroke="#3c352b" stroke-width="2"/><circle cx="132.082" cy="77.172" r="5" fill="#5a4632" stroke="#3c352b" stroke-width="2"/><circle cx="132.082" cy="77.172" r="2.5" fill="#3c352b" stroke="#3c352b" stroke-width="2"/><path d="m 124.93621,79.861327 a 10,10 0 0 1 -2.8656,-11.352506 10,10 0 0 1 9.87493,-6.291021 10,10 0 0 1 9.07781,7.394891 z" fill="#f6ead2" stroke="#3c352b" stroke-width="2"/></g><circle cx="134.125" cy="100" r="5" fill="#3c352b" stroke="#3c352b" stroke-width="2"/><circle cx="165.875" cy="100" r="5" fill="#3c352b" stroke="#3c352b" stroke-width="2"/><path id="cow-mouth" d="M 130 115.359 A 40 40 0 0 1 170 115.359" fill="none" stroke="#3c352b" stroke-width="2" stroke-linecap="round"/></g></g></svg>