<svg xmlns="http://www.w3.org/2000/svg" viewBox="0 0 300 300" width="300mm" height="300mm"><rect x="58" y="208" width="184" height="92" rx="10" fill="#6b5d49" stroke="#3c352b" stroke-width="4.5"/><rect x="126" y="212" width="48" height="88" rx="6" fill="#e8e0cc" stroke="#3c352b" stroke-width="3"/><path d="M 126 212 L 108 236 L 118 300" fill="none" stroke="#3c352b" stroke-width="2" stroke-linecap="round" stroke-linejoin="round"/><path d="M 174 212 L 192 236 L 182 300" fill="none" stroke="#3c352b" stroke-width="2" stroke-linecap="round" stroke-linejoin="round"/><rect x="136" y="176" width="28" height="40" rx="6" fill="#efdcc0" stroke="#3c352b" stroke-width="2"/><rect x="102" y="122" width="12" height="20" rx="5" fill="#e2cdae" stroke="#3c352b" stroke-width="2"/><rect x="186" y="122" width="12" height="20" rx="5" fill="#e2cdae" stroke="#3c352b" stroke-width="2"/><rect x="110" y="78" width="80" height="108" rx="22" fill="#efdcc0" stroke="#3c352b" stroke-width="4.5"/><path d="M 110 106 L 110 96 A 22 22 0 0 1 132 78 L 168 78 A 22 22 0 0 1 190 96 L 190 106 L 176 102 L 150 100 L 124 102 Z" fill="#5f5340" stroke="#3c352b" stroke-width="3" stroke-linecap="round" stroke-linejoin="round"/><rect x="122" y="116" width="22" height="4.5" rx="2" fill="#3c352b" stroke="#3c352b" stroke-width="0.6"/><rect x="156" y="116" width="22" height="4.5" rx="2" fill="#3c352b" stroke="#3c352b" stroke-width="0.6"/><rect x="126" y="126" width="15" height="9" rx="4" fill="#fdf8ec" stroke="#3c352b" stroke-width="2"/><rect x="159" y="126" width="15" height="9" rx="4" fill="#fdf8ec" stroke="#3c352b" stroke-width="2"/><rect x="131" y="128" width="6" height="6" rx="2.4" fill="#5a4632" stroke="#3c352b" stroke-width="1"/><rect x="163" y="128" width="6" height="6" rx="2.4" fill="#5a4632" stroke="#3c352b" stroke-width="1"/><rect x="144" y="132" width="12" height="22" rx="5" fill="#e2cdae" stroke="#3c352b" stroke-width="2"/><rect x="138" y="164" width="24" height="4" rx="2" fill="#3c352b" transform="rotate(-3 150 166)"/><path d="M 118 152 L 122 168" fill="none" stroke="#3c352b" stroke-width="2" stroke-linecap="round" stroke-linejoin="round" opacity="0.4"/><path d="M 182 152 L 178 168" fill="none" stroke="#3c352b" stroke-width="2" stroke-linecap="round" stroke-linejoin="round" opacity="0.4"/><path d="M 144 176 L 156 176" fill="none" stroke="#3c352b" stroke-width="2" stroke-linecap="round" stroke-linejoin="round" opacity="0.5"/></svg>